<svg xmlns="http://www.w3.org/2000/svg" version="1.1" xmlns:xlink="http://www.w3.org/1999/xlink" xmlns:svgjs="http://svgjs.dev/svgjs" width="1500" height="1500" viewBox="0 0 1500 1500"><rect width="1500" height="1500" fill="#ffffff"></rect><g transform="matrix(0.6666666666666666,0,0,0.6666666666666666,249.39393939393938,622.6904493984398)"><svg viewBox="0 0 396 101" data-background-color="#ffffff" preserveAspectRatio="xMidYMid meet" height="382" width="1500" xmlns="http://www.w3.org/2000/svg" xmlns:xlink="http://www.w3.org/1999/xlink"><g id="tight-bounds" transform="matrix(1,0,0,1,0.2400000000000091,-0.009432156711056905)"><svg viewBox="0 0 395.52 101.01886431342214" height="101.01886431342214" width="395.52"><g><svg viewBox="0 0 548.16581665034 140.00578543046356" height="101.01886431342214" width="395.52"><g transform="matrix(1,0,0,1,152.64581665034,43.26381986754966)"><svg viewBox="0 0 395.52 53.47814569536424" height="53.47814569536424" width="395.52"><g id="textblocktransform"><svg viewBox="0 0 395.52 53.47814569536424" height="53.47814569536424" width="395.52" id="textblock"><g><svg viewBox="0 0 395.52 53.47814569536424" height="53.47814569536424" width="395.52"><g transform="matrix(1,0,0,1,0,0)"><svg width="395.52" viewBox="0.9 -36.15 271.78000000000003 36.75" height="53.47814569536424" data-palette-color="#212121"><path d="M0.9 0L6.95-34.3 13.9-34.3 18.15-10.9Q18.55-8.9 18.6-5.75L18.6-5.75 18.8-5.75Q20.1-9.25 21-10.9L21-10.9 33.4-34.3 40.75-34.3 34.7 0 29.95 0 33.95-22.65 35.15-29.05 34.8-29.05Q34.05-27 33.4-25.75L33.4-25.75 19.6 0 15.6 0 10.95-25.75Q10.75-26.8 10.65-29.05L10.65-29.05 10.35-29.05 9.35-22.65 5.35 0 0.9 0ZM49.05 0L45.2-34.3 50-34.3 52.65-10.1Q52.8-8.95 53-4.85L53-4.85 53.25-4.85Q54.9-9.45 55.2-10.1L55.2-10.1 64.75-34.3 71.75-34.3 73-10.1Q73.1-8.55 73.1-4.85L73.1-4.85 73.35-4.85 75.65-10.1 86.55-34.3 91.3-34.3 75.35 0 68.8 0 67.65-24.05Q67.55-26.15 67.5-29.65L67.5-29.65 67.25-29.65Q65.95-25.85 65.25-24.05L65.25-24.05 55.6 0 49.05 0ZM111.69 0L116.99-30.15 105.19-30.15 105.94-34.3 134.29-34.3 133.54-30.15 121.74-30.15 116.44 0 111.69 0ZM133.04 0L137.69-26.3 141.04-26.3 140.84-22.35 141.14-22.35Q143.74-26.9 148.14-26.9L148.14-26.9Q149.49-26.9 150.44-26.5L150.44-26.5 149.69-22.25 147.84-22.25Q145.04-22.25 142.89-20.5 140.74-18.75 140.09-15.05L140.09-15.05 137.44 0 133.04 0ZM158.34 0.6Q154.49 0.6 152.29-1.83 150.09-4.25 150.09-8.95L150.09-8.95Q150.09-14.3 151.74-18.38 153.39-22.45 156.26-24.68 159.14-26.9 162.69-26.9L162.69-26.9Q165.44-26.9 167.14-26.05 168.84-25.2 169.79-23.3L169.79-23.3 170.09-23.3 171.64-26.3 174.99-26.3 173.74-19.65Q171.04-5 171.04-4.4L171.04-4.4Q171.04-3.05 172.54-3.05L172.54-3.05 174.54-3.05 174.04-0.2Q173.54 0.1 172.66 0.35 171.79 0.6 170.74 0.6L170.74 0.6Q167.09 0.6 167.09-3.15L167.09-3.15Q167.09-3.8 167.14-4.15L167.14-4.15 166.89-4.15Q165.54-1.85 163.24-0.63 160.94 0.6 158.34 0.6L158.34 0.6ZM159.44-3.05Q162.59-3.05 164.66-5.3 166.74-7.55 167.69-10.78 168.64-14 168.64-17.05L168.64-17.05Q168.64-20.15 167.36-21.7 166.09-23.25 163.29-23.25L163.29-23.25Q160.54-23.25 158.59-21.35 156.64-19.45 155.66-16.25 154.69-13.05 154.69-9.2L154.69-9.2Q154.69-3.05 159.44-3.05L159.44-3.05ZM188.04 0.6Q182.74 0.6 180.31-1.9 177.89-4.4 177.89-9.65L177.89-9.65Q177.89-14.15 179.21-18.05 180.54-21.95 183.49-24.43 186.44-26.9 190.99-26.9L190.99-26.9Q196.09-26.9 198.36-24.63 200.64-22.35 200.64-18.4L200.64-18.4Q200.64-17.75 200.54-16.55L200.54-16.55 196.04-16.55Q196.09-17.05 196.09-18L196.09-18Q196.09-20.45 195.01-21.85 193.94-23.25 191.14-23.25L191.14-23.25Q187.54-23.25 185.54-20.7 183.54-18.15 182.84-14.2L182.84-14.2Q182.49-12.15 182.49-9.9L182.49-9.9Q182.49-6.25 183.84-4.65 185.19-3.05 187.89-3.05L187.89-3.05Q190.99-3.05 192.79-4.98 194.59-6.9 195.14-9.75L195.14-9.75 199.39-9.75Q198.64-5.2 195.79-2.3 192.94 0.6 188.04 0.6L188.04 0.6ZM202.48 0L208.83-36.15 213.23-36.15 209.28-13.65 222.68-26.3 228.13-26.3 217.23-15.95 223.98 0 219.13 0 214.13-12.95 208.33-8.25 206.88 0 202.48 0ZM239.48 0.6Q233.63 0.6 230.76-1.95 227.88-4.5 227.88-9.8L227.88-9.8Q227.88-14.65 229.38-18.53 230.88-22.4 234.08-24.65 237.28-26.9 242.08-26.9L242.08-26.9Q247.08-26.9 249.73-24.6 252.38-22.3 252.38-17.85L252.38-17.85Q252.38-16.3 251.98-14.15L251.98-14.15 251.58-11.95 232.53-11.95Q232.38-11.25 232.38-10.05L232.38-10.05Q232.38-6.5 234.11-4.78 235.83-3.05 239.38-3.05L239.38-3.05Q242.23-3.05 244.26-4.5 246.28-5.95 246.78-8.95L246.78-8.95 251.08-8.95Q250.33-4.35 247.13-1.88 243.93 0.6 239.48 0.6L239.48 0.6ZM233.18-15.6L247.73-15.6Q247.93-16.3 247.93-17.55L247.93-17.55Q247.93-23.25 241.93-23.25L241.93-23.25Q238.53-23.25 236.31-21.28 234.08-19.3 233.18-15.6L233.18-15.6ZM255.28 0L259.93-26.3 263.28-26.3 263.08-22.35 263.38-22.35Q265.98-26.9 270.38-26.9L270.38-26.9Q271.73-26.9 272.68-26.5L272.68-26.5 271.93-22.25 270.08-22.25Q267.28-22.25 265.13-20.5 262.98-18.75 262.33-15.05L262.33-15.05 259.68 0 255.28 0Z" opacity="1" transform="matrix(1,0,0,1,0,0)" fill="#000000" class="wordmark-text-0" data-fill-palette-color="primary" id="text-0"></path></svg></g></svg></g></svg></g></svg></g><g><svg viewBox="0 0 140.0209099271612 140.00578543046356" height="140.00578543046356" width="140.0209099271612"><g><svg xmlns="http://www.w3.org/2000/svg" xmlns:xlink="http://www.w3.org/1999/xlink" version="1.1" x="0" y="0" viewBox="6.34 6.344 83.321 83.31200000000001" enable-background="new 0 0 96 96" xml:space="preserve" height="140.00578543046356" width="140.0209099271612" class="icon-icon-0" data-fill-palette-color="accent" id="icon-0"><g fill="#000000" data-fill-palette-color="accent"><path d="M64.854 40.684c0 1.962 1.246 3.558 2.779 3.558h0.396c1.533 0 2.781-1.596 2.781-3.558V38.11h-5.957V40.684z" fill="#000000" data-fill-palette-color="accent"></path><path d="M57.311 25.313h-2.764c-0.732 0-1.422 0.36-1.938 1.01-0.537 0.667-0.844 1.587-0.842 2.586l0.766 12.202h6.793l0.766-12.304C60.09 26.881 58.842 25.313 57.311 25.313z" fill="#000000" data-fill-palette-color="accent"></path><path d="M52.949 46.583c0 1.962 1.248 3.558 2.781 3.558h0.395c1.533 0 2.781-1.596 2.783-3.558v-2.574h-5.959V46.583z" fill="#000000" data-fill-palette-color="accent"></path><path d="M69.213 19.414h-2.762c-1.533 0-2.781 1.586-2.781 3.599l0.766 12.199h6.793l0.77-12.303C71.994 20.982 70.746 19.414 69.213 19.414z" fill="#000000" data-fill-palette-color="accent"></path><path d="M61.703 6.344c-15.414 0-27.955 12.541-27.955 27.956 0 6.978 2.567 13.601 7.253 18.759l-7.588 7.588-2.974-2.975L6.34 81.775l7.882 7.881 24.098-24.105-2.961-2.961 7.587-7.587c5.16 4.685 11.783 7.253 18.76 7.253 15.414 0 27.955-12.541 27.955-27.956S77.119 6.344 61.703 6.344zM61.705 57.777c-12.947 0-23.479-10.531-23.479-23.479 0-12.946 10.532-23.479 23.479-23.479 12.945 0 23.479 10.533 23.479 23.479C85.184 47.245 74.65 57.777 61.705 57.777z" fill="#000000" data-fill-palette-color="accent"></path></g></svg></g></svg></g></svg></g><defs></defs></svg><rect width="395.52" height="101.01886431342214" fill="none" stroke="none" visibility="hidden"></rect></g></svg></g></svg>